<svg enable-background="new 0 0 287 105.2" viewBox="0 0 287 105.2" xmlns="http://www.w3.org/2000/svg"><path d="m107.2 15.7s-35.1-35.7-64.9 5.7c0 0-15.5 0-22 17.3 0 0-17.8 6.8-16.3 25.9 0 0 2.6 20.8 29.4 22.3 0 0-3.9 12.2 6.3 16.4 0 0 8 2.7 13.1-4.2l17.9-22.6s15.8 13.1 40.8 6c0 0 22.6-7 25-29.8-.1-.1 3.4-27.1-29.3-37z" fill="#00bad8"/><path d="m25.5 85.8c7.1-2.7 33.1-43.5 106.4-52.3 0 0 14 22.6-6.6 40.6 0 0-23.6 22.8-54.8 2.4l-16.7 21.1s-4.6 8-14.3 5.7c0 0-10.3-5-6.3-16.4z" fill="#00aac8"/><path d="m41.4 95.3c2.2 4.5 6.6-4.9 11.3-11.7 5.2-9.5 20.1-27.2 21.2-26.4 1.5-.3 3.6 5.5 6 13 1.3 3 5.9 1.9 5.5.1.1-1.1-5.6-18.7-4.8-21.3.1-.7 2-3.4 5-6.9s11.4-10.7 14.1-11.2c1.7-.8 4.4-.1 4.7.4-5.3-18.1-17-7.4-23.7-.7-.4.4-1.7 1.8-2.2 2.3-3.5 4.2-5.1 6.2-7.8.7-4.5-11-11.1.9-9.4 1.4 2.3 2.8 7.4 7.3 6.9 10.8.8 3.4-29 35.3-26.8 49.5z" fill="#fff"/><path d="m150.5 32.3c-2.6 0-4.6-.8-6-2.4s-2.1-3.8-2.1-6.7c0-3 .7-5.3 2.1-6.9s3.5-2.4 6.1-2.4c.9 0 1.7.1 2.6.3s1.5.4 2 .6l-.8 2.3c-.6-.2-1.2-.4-1.9-.6s-1.3-.2-1.9-.2c-3.6 0-5.4 2.3-5.4 6.9 0 2.2.4 3.9 1.3 5 .9 1.2 2.2 1.8 3.9 1.8 1.5 0 3-.3 4.6-1v2.4c-1.2.6-2.7.9-4.5.9z" fill="#010101"/><path d="m175.7 23.1c0 2.9-.7 5.2-2.2 6.8s-3.5 2.4-6 2.4c-1.6 0-3-.4-4.2-1.1s-2.2-1.8-2.9-3.2-1-3-1-4.9c0-2.9.7-5.2 2.2-6.8 1.4-1.6 3.5-2.4 6-2.4s4.5.8 5.9 2.5c1.4 1.6 2.2 3.8 2.2 6.7zm-13.6 0c0 2.3.5 4 1.4 5.2s2.2 1.8 4 1.8 3.1-.6 4-1.8 1.4-2.9 1.4-5.2-.5-4-1.4-5.1c-.9-1.2-2.3-1.8-4-1.8-1.8 0-3.1.6-4 1.7s-1.4 2.9-1.4 5.2z" fill="#010101"/><path d="m193.7 32v-11.5c0-1.4-.3-2.5-1-3.2s-1.7-1.1-3.1-1.1c-1.9 0-3.2.5-4.1 1.5s-1.3 2.7-1.3 5v9.3h-2.7v-17.8h2.2l.4 2.4h.1c.6-.9 1.3-1.6 2.3-2 1-.5 2.1-.7 3.3-.7 2.1 0 3.8.5 4.8 1.5 1.1 1 1.6 2.7 1.6 5v11.6z" fill="#010101"/><path d="m210.5 32.3c-2.6 0-4.7-.8-6.2-2.4s-2.3-3.8-2.3-6.7.7-5.1 2.1-6.8 3.3-2.5 5.7-2.5c2.2 0 4 .7 5.3 2.2s1.9 3.4 1.9 5.8v1.7h-12.2c.1 2.1.6 3.7 1.6 4.8s2.4 1.6 4.2 1.6c1.9 0 3.8-.4 5.7-1.2v2.4c-1 .4-1.9.7-2.7.9-.8.1-1.9.2-3.1.2zm-.7-16.2c-1.4 0-2.6.5-3.4 1.4s-1.3 2.2-1.5 3.9h9.3c0-1.7-.4-3-1.1-3.9-.8-.9-1.9-1.4-3.3-1.4z" fill="#010101"/><path d="m227.1 22.9-6.2-8.7h3.1l4.7 6.8 4.7-6.8h3l-6.2 8.7 6.5 9.1h-3l-5-7.2-5 7.2h-3z" fill="#010101"/><path d="m248.4 32.3c-2.6 0-4.6-.8-6-2.4s-2.1-3.8-2.1-6.7c0-3 .7-5.3 2.1-6.9s3.5-2.4 6.1-2.4c.9 0 1.7.1 2.6.3s1.5.4 2 .6l-.8 2.3c-.6-.2-1.2-.4-1.9-.6s-1.3-.2-1.9-.2c-3.6 0-5.4 2.3-5.4 6.9 0 2.2.4 3.9 1.3 5 .9 1.2 2.2 1.8 3.9 1.8 1.5 0 3-.3 4.6-1v2.4c-1.2.6-2.7.9-4.5.9z" fill="#010101"/><path d="m273.6 23.1c0 2.9-.7 5.2-2.2 6.8s-3.5 2.4-6 2.4c-1.6 0-3-.4-4.2-1.1s-2.2-1.8-2.9-3.2-1-3-1-4.9c0-2.9.7-5.2 2.2-6.8 1.4-1.6 3.5-2.4 6-2.4s4.5.8 5.9 2.5c1.5 1.6 2.2 3.8 2.2 6.7zm-13.5 0c0 2.3.5 4 1.4 5.2s2.2 1.8 4 1.8 3.1-.6 4-1.8 1.4-2.9 1.4-5.2-.5-4-1.4-5.1c-.9-1.2-2.3-1.8-4-1.8-1.8 0-3.1.6-4 1.7-1 1.1-1.4 2.9-1.4 5.2z" fill="#010101"/><path d="m282.1 32h-2.7v-25.3h2.7z" fill="#010101"/><g fill="#00bad8"><path d="m155.6 76.6c-8.5 0-12.8-4.7-12.8-14.1 0-4.7 1.2-8.2 3.5-10.7s5.6-3.7 10-3.7c3.2 0 6 .6 8.5 1.9l-2.2 5.8c-1.2-.5-2.3-.9-3.3-1.2s-2-.5-3-.5c-3.9 0-5.8 2.8-5.8 8.3 0 5.4 1.9 8 5.8 8 1.4 0 2.8-.2 4-.6s2.5-1 3.7-1.8v6.4c-1.2.8-2.4 1.3-3.7 1.6-1.3.5-2.8.6-4.7.6z" stroke="#00bad8" stroke-miterlimit="10" stroke-width="2.0698"/><path d="m179.9 76.1h-7.5v-38.1h7.5z" stroke="#00bad8" stroke-miterlimit="10" stroke-width="2.0698"/><path d="m214.8 62.4c0 4.5-1.2 8-3.5 10.5-2.4 2.5-5.6 3.8-9.8 3.8-2.6 0-5-.6-7-1.7-2-1.2-3.6-2.8-4.6-5-1.1-2.2-1.6-4.7-1.6-7.6 0-4.5 1.2-8 3.5-10.4 2.3-2.5 5.6-3.7 9.9-3.7 2.6 0 5 .6 7 1.7s3.6 2.8 4.6 4.9c.9 2.1 1.5 4.6 1.5 7.5zm-19 0c0 2.7.4 4.8 1.3 6.2s2.3 2.1 4.4 2.1c2 0 3.4-.7 4.3-2.1s1.3-3.4 1.3-6.2c0-2.7-.4-4.7-1.3-6.1s-2.3-2-4.3-2-3.4.7-4.3 2c-1 1.3-1.4 3.3-1.4 6.1z" stroke="#00bad8" stroke-miterlimit="10" stroke-width="2.0698"/><path d="m242.5 76.1-1-3.5h-.4c-.8 1.3-1.9 2.3-3.4 3s-3.1 1-5 1c-3.2 0-5.6-.9-7.3-2.6-1.6-1.7-2.5-4.2-2.5-7.4v-17.9h7.5v16c0 2 .4 3.5 1.1 4.5s1.8 1.5 3.4 1.5c2.1 0 3.6-.7 4.5-2.1s1.4-3.7 1.4-7v-12.9h7.5v27.4z" stroke="#00bad8" stroke-miterlimit="10" stroke-width="2.0698"/><path d="m266.9 76.6c-3.2 0-5.8-1.3-7.6-3.8s-2.8-6-2.8-10.4c0-4.5.9-8 2.8-10.5s4.4-3.8 7.7-3.8c3.4 0 6.1 1.3 7.9 4h.2c-.4-2-.6-3.9-.6-5.5v-8.6h7.5v38.2h-5.7l-1.4-3.6h-.3c-1.7 2.7-4.3 4-7.7 4zm2.6-5.9c1.9 0 3.3-.6 4.2-1.7s1.4-3 1.5-5.7v-.8c0-2.9-.5-5.1-1.4-6.3-.9-1.3-2.4-1.9-4.4-1.9-1.7 0-3 .7-3.9 2.1s-1.4 3.5-1.4 6.2.5 4.7 1.4 6.1c.9 1.3 2.2 2 4 2z" stroke="#00bad8" stroke-miterlimit="10" stroke-width="2.0698"/><path d="m143.5 91.7h-.8v-7.3h.8z"/><path d="m151.4 91.7-.2-.7c-.3.3-.5.5-.8.7-.3.1-.6.2-1 .2-.5 0-.9-.1-1.2-.4s-.4-.6-.4-1.1c0-1 .8-1.6 2.5-1.6h.9v-.3c0-.4-.1-.7-.3-.9s-.5-.3-.8-.3c-.4 0-.9.1-1.5.4l-.2-.6c.3-.1.5-.2.8-.3s.6-.1.9-.1c.6 0 1.1.1 1.4.4s.4.7.4 1.3v3.5h-.5zm-1.7-.5c.5 0 .9-.1 1.1-.4.3-.3.4-.6.4-1.1v-.5h-.8c-.6 0-1.1.1-1.3.3-.3.2-.4.4-.4.8 0 .3.1.5.3.6.1.2.4.3.7.3z"/><path d="m165.9 91.7v-3.3c0-.4-.1-.7-.3-.9s-.5-.3-.9-.3c-.5 0-.9.1-1.2.4s-.4.8-.4 1.4v2.7h-.8v-5.1h.6l.1.7c.2-.3.4-.4.7-.6.3-.1.6-.2 1-.2.6 0 1.1.1 1.4.4s.5.8.5 1.4v3.4z"/><path d="m172.1 86.6v3.3c0 .4.1.7.3.9s.5.3.9.3c.5 0 .9-.1 1.2-.4.2-.3.4-.8.4-1.4v-2.7h.8v5.1h-.7l-.1-.7c-.2.3-.4.4-.7.6-.3.1-.6.2-1 .2-.6 0-1.1-.1-1.4-.4s-.5-.8-.5-1.4v-3.4z"/><path d="m182.8 86.5c.7 0 1.2.2 1.6.7s.6 1.1.6 2c0 .8-.2 1.5-.6 2s-.9.7-1.6.7c-.3 0-.6-.1-.9-.2s-.5-.3-.7-.6h-.1l-.2.7h-.6v-7.3h.8v1.8 1.1c.4-.7 1-.9 1.7-.9zm-.1.6c-.5 0-.9.2-1.1.5s-.4.8-.4 1.5.1 1.2.4 1.6c.2.3.6.5 1.2.5.5 0 .8-.2 1.1-.5.2-.3.4-.9.4-1.5 0-.7-.1-1.2-.4-1.5-.4-.4-.7-.6-1.2-.6z"/><path d="m191.6 91.8c-.8 0-1.4-.2-1.8-.7s-.7-1.1-.7-1.9.2-1.5.6-2 1-.7 1.6-.7 1.2.2 1.5.6c.4.4.6 1 .6 1.7v.5h-3.5c0 .6.2 1.1.5 1.4s.7.5 1.2.5c.6 0 1.1-.1 1.6-.3v.7c-.3.1-.5.2-.8.3-.2-.1-.5-.1-.8-.1zm-.2-4.7c-.4 0-.7.1-1 .4-.2.3-.4.6-.4 1.1h2.7c0-.5-.1-.9-.3-1.1-.3-.2-.6-.4-1-.4z"/><path d="m205.6 91.8c-.7 0-1.3-.2-1.7-.7s-.6-1.1-.6-1.9c0-.9.2-1.5.6-2s1-.7 1.8-.7c.2 0 .5 0 .7.1s.4.1.6.2l-.2.7c-.2-.1-.4-.1-.6-.2-.2 0-.4-.1-.5-.1-1 0-1.6.7-1.6 2 0 .6.1 1.1.4 1.5.3.3.6.5 1.1.5.4 0 .9-.1 1.3-.3v.7c-.4.1-.8.2-1.3.2z"/><path d="m215.6 89.1c0 .8-.2 1.5-.6 2s-1 .7-1.8.7c-.5 0-.9-.1-1.2-.3-.4-.2-.6-.5-.8-.9s-.3-.9-.3-1.4c0-.8.2-1.5.6-2s1-.7 1.7-.7 1.3.2 1.7.7c.5.5.7 1.1.7 1.9zm-3.9 0c0 .7.1 1.2.4 1.5s.6.5 1.2.5c.5 0 .9-.2 1.2-.5s.4-.8.4-1.5-.1-1.2-.4-1.5-.7-.5-1.2-.5-.9.2-1.2.5c-.2.4-.4.9-.4 1.5z"/><path d="m220.9 91.7h-.8v-7.3h.8z"/><path d="m230.1 89.1c0 .8-.2 1.5-.6 2s-1 .7-1.8.7c-.5 0-.9-.1-1.2-.3-.4-.2-.6-.5-.8-.9s-.3-.9-.3-1.4c0-.8.2-1.5.6-2s1-.7 1.7-.7 1.3.2 1.7.7c.5.5.7 1.1.7 1.9zm-3.9 0c0 .7.1 1.2.4 1.5s.6.5 1.2.5c.5 0 .9-.2 1.2-.5s.4-.8.4-1.5-.1-1.2-.4-1.5-.7-.5-1.2-.5-.9.2-1.2.5c-.3.4-.4.9-.4 1.5z"/><path d="m241.2 91.7v-3.3c0-.4-.1-.7-.3-.9s-.4-.3-.8-.3c-.5 0-.8.1-1.1.4-.2.3-.3.7-.3 1.3v2.9h-.8v-3.3c0-.4-.1-.7-.3-.9s-.4-.3-.8-.3c-.5 0-.8.1-1.1.4-.2.3-.3.8-.3 1.4v2.7h-.8v-5.1h.6l.1.7c.1-.3.4-.4.6-.6.3-.1.6-.2.9-.2.8 0 1.3.3 1.6.9.2-.3.4-.5.7-.6.3-.2.6-.2 1-.2.6 0 1 .1 1.3.4s.4.8.4 1.4v3.4h-.6z"/><path d="m249.1 86.5c.7 0 1.2.2 1.6.7s.6 1.1.6 2c0 .8-.2 1.5-.6 2s-.9.7-1.6.7c-.3 0-.6-.1-.9-.2s-.5-.3-.7-.6h-.1l-.2.7h-.6v-7.3h.8v1.8 1.1c.4-.7.9-.9 1.7-.9zm-.2.6c-.5 0-.9.2-1.2.5-.2.3-.4.8-.4 1.5s.1 1.2.4 1.6c.2.3.6.5 1.2.5.5 0 .8-.2 1.1-.5.2-.3.4-.9.4-1.5 0-.7-.1-1.2-.4-1.5-.2-.4-.6-.6-1.1-.6z"/><path d="m255.6 85.2c0-.2 0-.3.1-.4s.2-.1.3-.1.2 0 .3.1.1.2.1.4 0 .3-.1.4-.2.1-.3.1-.2 0-.3-.1-.1-.2-.1-.4zm.8 6.5h-.8v-5.1h.8z"/><path d="m264.4 91.7-.2-.7c-.3.3-.5.5-.8.7-.3.1-.6.2-1 .2-.5 0-.9-.1-1.2-.4s-.4-.6-.4-1.1c0-1 .8-1.6 2.5-1.6h.9v-.3c0-.4-.1-.7-.3-.9s-.5-.3-.8-.3c-.4 0-.9.1-1.5.4l-.2-.6c.3-.1.5-.2.8-.3s.6-.1.9-.1c.6 0 1.1.1 1.4.4s.4.7.4 1.3v3.5h-.5zm-1.8-.5c.5 0 .9-.1 1.1-.4.3-.3.4-.6.4-1.1v-.5h-.8c-.6 0-1.1.1-1.3.3-.3.2-.4.4-.4.8 0 .3.1.5.3.6.2.2.4.3.7.3z"/><path d="m273.2 91.7v-3.3c0-.4-.1-.7-.3-.9s-.5-.3-.9-.3c-.5 0-.9.1-1.2.4s-.4.8-.4 1.4v2.7h-.8v-5.1h.6l.1.7c.2-.3.4-.4.7-.6.3-.1.6-.2 1-.2.6 0 1.1.1 1.4.4s.5.8.5 1.4v3.4z"/><path d="m281.9 91.7-.2-.7c-.3.3-.5.5-.8.7-.3.1-.6.2-1 .2-.5 0-.9-.1-1.2-.4s-.4-.6-.4-1.1c0-1 .8-1.6 2.5-1.6h.9v-.3c0-.4-.1-.7-.3-.9s-.5-.3-.8-.3c-.4 0-.9.1-1.5.4l-.2-.6c.3-.1.5-.2.8-.3s.6-.1.9-.1c.6 0 1.1.1 1.4.4s.4.7.4 1.3v3.5h-.5zm-1.8-.5c.5 0 .9-.1 1.1-.4.3-.3.4-.6.4-1.1v-.5h-.8c-.6 0-1.1.1-1.3.3-.3.2-.4.4-.4.8 0 .3.1.5.3.6.2.2.4.3.7.3z"/></g></svg>