<svg xmlns="http://www.w3.org/2000/svg" width="158.804" height="33" viewBox="0 0 158.804 33"><defs><style>.a{fill:#e52625;}</style></defs><path class="a" d="M38.078,5.813H34.21v16.6h3.868V14.382h.011a4.37,4.37,0,0,1,1.324-3.355,4.865,4.865,0,0,1,3.48-1.016V5.79a7.4,7.4,0,0,0-4.815,1.837V5.813Z" transform="translate(4.826 0.817)"></path><path class="a" d="M33.171,18.055a2.131,2.131,0,0,1-.548-1.495V5.834H28.755V7.306A6.809,6.809,0,0,0,24.134,5.64h-.057a8.556,8.556,0,0,0-8.547,8.547v.126a8.43,8.43,0,0,0,8.421,8.421h.08A8.57,8.57,0,0,0,30.022,20.3c.114.148.24.285.365.422a5.92,5.92,0,0,0,4.325,1.769h.126V18.625h-.126A2.085,2.085,0,0,1,33.171,18.055Zm-9.14.822h-.08A4.558,4.558,0,0,1,19.4,14.324V14.2A4.685,4.685,0,0,1,24.077,9.52h.057a4.626,4.626,0,0,1,4.621,4.633A4.734,4.734,0,0,1,24.031,18.877Z" transform="translate(2.191 0.796)"></path><path class="a" d="M56.325,7.352A7.426,7.426,0,0,0,51.7,5.64h-.057A8.556,8.556,0,0,0,43.1,14.187v.126a8.43,8.43,0,0,0,8.421,8.421h.08a6.568,6.568,0,0,0,4.735-1.849v1.54H60.2V5.834H56.337V7.352ZM51.6,18.877h-.08a4.558,4.558,0,0,1-4.553-4.553V14.2A4.685,4.685,0,0,1,51.647,9.52H51.7a4.626,4.626,0,0,1,4.621,4.633A4.734,4.734,0,0,1,51.6,18.877Z" transform="translate(6.08 0.796)"></path><rect class="a" width="3.868" height="16.614" transform="translate(87.909 6.618)"></rect><path class="a" d="M73.177,7.816a8.463,8.463,0,0,0-4.633-1.369h-.057a8.556,8.556,0,0,0-8.547,8.547v.126a8.43,8.43,0,0,0,8.421,8.421h.08a6.952,6.952,0,0,0,4.735-1.849v1.54h3.868V0H73.177ZM68.441,19.672h-.08a4.558,4.558,0,0,1-4.553-4.553v-.126a4.685,4.685,0,0,1,4.678-4.678h.057a4.636,4.636,0,0,1,4.633,4.633A4.736,4.736,0,0,1,68.441,19.672Z" transform="translate(8.456)"></path><path class="a" d="M137.417,5.834V7.352a6.88,6.88,0,0,0-4.633-1.712h-.057a8.556,8.556,0,0,0-8.547,8.547v.126a8.43,8.43,0,0,0,8.421,8.421h.08a7.083,7.083,0,0,0,4.735-1.849v1.586h3.868V5.834Zm-4.735,13.043h-.08a4.558,4.558,0,0,1-4.553-4.553V14.2a4.685,4.685,0,0,1,4.678-4.678h.057a4.636,4.636,0,0,1,4.633,4.633A4.736,4.736,0,0,1,132.681,18.877Z" transform="translate(17.519 0.796)"></path><path class="a" d="M8.6.03H0l.011,14V23.3H3.88V17.112l4.61.011h0a8.61,8.61,0,0,0,8.6-8.6A8.5,8.5,0,0,0,8.6.03ZM8.5,13.255,3.88,13.244V3.9H8.6a4.626,4.626,0,0,1,4.621,4.633A4.726,4.726,0,0,1,8.5,13.255Z" transform="translate(0 0.004)"></path><path class="a" d="M79,0A1.951,1.951,0,0,0,77.08,1.951,1.883,1.883,0,0,0,79,3.823,1.911,1.911,0,1,0,79,0Z" transform="translate(10.874)"></path><path class="a" d="M95.647,7.316A7.089,7.089,0,0,0,91.014,5.65h-.057A8.556,8.556,0,0,0,82.41,14.2v.126a8.43,8.43,0,0,0,8.421,8.421h.08a8.542,8.542,0,0,0,4.735-1.426v2.271a4.738,4.738,0,0,1-4.735,4.735h-.08a4.568,4.568,0,0,1-4.462-3.629l-3.788.776a8.52,8.52,0,0,0,2.887,4.8A8.413,8.413,0,0,0,90.82,32.2h.08a8.61,8.61,0,0,0,8.6-8.6V5.833H95.635V7.316ZM90.911,18.875h-.08a4.558,4.558,0,0,1-4.553-4.553V14.2a4.685,4.685,0,0,1,4.678-4.678h.057a4.636,4.636,0,0,1,4.633,4.633A4.743,4.743,0,0,1,90.911,18.875Z" transform="translate(11.626 0.797)"></path><path class="a" d="M125.38,14.075a9.381,9.381,0,0,0-1.8-5.842,6.645,6.645,0,0,0-2.4-1.928,7.3,7.3,0,0,0-3.172-.685,7.409,7.409,0,0,0-3.663.89,6.7,6.7,0,0,0-1.837,1.518,6.813,6.813,0,0,0-5.477-2.351,5.124,5.124,0,0,0-3.663,1.677V5.814H99.5V22.5h3.868V13.824a5.3,5.3,0,0,1,.833-2.955,3.177,3.177,0,0,1,2.83-1.324,3.04,3.04,0,0,1,2.739,1.267,5.644,5.644,0,0,1,.742,3v8.672H114.4V13.961a5.966,5.966,0,0,1,.81-3.1,3.431,3.431,0,0,1,5.306-.24,5.681,5.681,0,0,1,.981,3.457,6.143,6.143,0,0,1-.936,3.777,1.96,1.96,0,0,1-1.632.822v3.868H126.4V18.674h-2.2A8.092,8.092,0,0,0,125.38,14.075Z" transform="translate(14.037 0.793)"></path></svg>